<svg width="12" height="15" viewBox="0 0 12 15" fill="none" xmlns="http://www.w3.org/2000/svg">
<path d="M10.8 0H1.2V1.25H10.8V0ZM1.2 15H10.8V13.75H1.2V15ZM10.8 2.5H1.2C0.54 2.5 0 3.0625 0 3.75V11.25C0 11.9375 0.54 12.5 1.2 12.5H10.8C11.46 12.5 12 11.9375 12 11.25V3.75C12 3.0625 11.46 2.5 10.8 2.5ZM6 4.21875C6.744 4.21875 7.35 4.85 7.35 5.625C7.35 6.4 6.744 7.03125 6 7.03125C5.256 7.03125 4.65 6.4 4.65 5.625C4.65 4.85 5.256 4.21875 6 4.21875ZM9 10.625H3V9.6875C3 8.64375 4.998 8.125 6 8.125C7.002 8.125 9 8.64375 9 9.6875V10.625Z" fill="currentColor"/>
</svg>
