<svg width="25" height="20" viewBox="0 0 25 20" fill="none" xmlns="http://www.w3.org/2000/svg">
<path d="M2.40233 20C1.74169 20 1.17634 19.7554 0.706284 19.2662C0.236229 18.7771 0.000800775 18.1883 0 17.5V2.5C0 1.8125 0.235428 1.22417 0.706284 0.735C1.17714 0.245833 1.74249 0.000833333 2.40233 0H8.61834C8.93865 0 9.24415 0.0625001 9.53483 0.1875C9.82551 0.3125 10.0806 0.489583 10.3 0.71875L12.0116 2.5H22.8221C23.1624 2.5 23.4479 2.62 23.6785 2.86C23.9091 3.1 24.0241 3.39667 24.0233 3.75C24.0225 4.10333 23.9071 4.40042 23.6773 4.64125C23.4475 4.88208 23.1624 5.00167 22.8221 5H7.0268C5.7856 5 4.70455 5.40625 3.78366 6.21875C2.86277 7.03125 2.40233 8.0625 2.40233 9.3125V17.5L4.77462 9.28125C4.93478 8.73958 5.23026 8.3075 5.66108 7.985C6.0919 7.6625 6.56716 7.50083 7.08686 7.5H22.5819C23.4027 7.5 24.0485 7.83875 24.5193 8.51625C24.9902 9.19375 25.1151 9.92791 24.8941 10.7187L22.732 18.2187C22.5718 18.7604 22.2768 19.1929 21.8467 19.5162C21.4167 19.8396 20.9411 20.0008 20.4198 20H2.40233Z" fill="currentColor"/>
</svg>
